<?xml version="1.0" encoding="iso-8859-1"?>
<!-- Generator: Adobe Illustrator 19.0.0, SVG Export Plug-In . SVG Version: 6.00 Build 0)  -->
<svg xmlns="http://www.w3.org/2000/svg" xmlns:xlink="http://www.w3.org/1999/xlink" version="1.1" id="Capa_1" x="0px" y="0px" viewBox="0 0 334.08 334.08" style="enable-background:new 0 0 334.08 334.08;" xml:space="preserve" width="512px" height="512px">
<g>
	<g>
		<path d="M299.6,165.2c-0.506-0.827-1.013-1.654-1.52-2.48l-21.52-23.2c-3.032-3.192-8.072-3.335-11.28-0.32    c-3.215,3.009-3.394,8.051-0.4,11.28l16.48,17.76L264.88,186c-3.226,3.019-3.394,8.081-0.375,11.307s8.081,3.394,11.307,0.375    c0.267-0.25,0.517-0.518,0.748-0.803l21.52-23.2c0.507-0.827,1.013-1.654,1.52-2.48C300.214,169.247,300.214,167.153,299.6,165.2z    " fill="#006DF0"/>
	</g>
</g>
<g>
	<g>
		<path d="M52.72,168.32l16.48-17.76c3.028-3.218,2.873-8.281-0.345-11.308c-0.018-0.017-0.037-0.034-0.055-0.052    c-3.229-2.994-8.271-2.815-11.28,0.4L36,162.8c-0.507,0.826-1.014,1.653-1.52,2.48c-0.614,1.953-0.614,4.047,0,6    c0.507,0.827,1.013,1.653,1.52,2.48l21.52,23.2c3.226,3.019,8.289,2.851,11.307-0.375c2.73-2.917,2.889-7.402,0.373-10.505    L52.72,168.32z" fill="#006DF0"/>
	</g>
</g>
<g>
	<g>
		<path d="M195.68,57.44l-23.2-21.52c-0.828-0.504-1.655-1.011-2.48-1.52c-0.479-0.043-0.961-0.043-1.44,0    c-0.988-0.318-2.052-0.318-3.04,0c-0.479-0.043-0.961-0.043-1.44,0c-0.825,0.509-1.652,1.016-2.48,1.52l-23.2,21.52    c-3.053,3.194-2.938,8.258,0.256,11.311c1.403,1.341,3.245,2.126,5.184,2.209c2.021-0.007,3.965-0.779,5.44-2.16l17.76-16.16    l17.76,16.48c3.432,2.783,8.47,2.257,11.253-1.175C198.569,64.842,198.41,60.357,195.68,57.44z" fill="#006DF0"/>
	</g>
</g>
<g>
	<g>
		<path d="M195.385,265.172c-2.917-2.73-7.401-2.889-10.505-0.372h-0.08l-17.76,16.48l-17.76-16.48    c-3.432-2.783-8.47-2.257-11.253,1.175c-2.516,3.103-2.357,7.588,0.372,10.505L161.6,298c0.494,0.381,1.031,0.703,1.6,0.96    l0.88,0.56c1.924,0.778,4.076,0.778,6,0l0.88-0.56c0.569-0.256,1.106-0.579,1.6-0.96l23.2-21.52    C198.779,273.254,198.611,268.191,195.385,265.172z" fill="#006DF0"/>
	</g>
</g>
<g>
	<g>
		<path d="M167.04,0C74.786,0,0,74.786,0,167.04s74.786,167.04,167.04,167.04s167.04-74.786,167.04-167.04c0-0.027,0-0.053,0-0.08    C333.948,74.774,259.226,0.088,167.04,0z M167.04,318C83.623,318,16,250.377,16,166.96S83.623,15.92,167.04,15.92    s151.04,67.623,151.04,151.04C317.992,250.34,250.421,317.912,167.04,318z" fill="#006DF0"/>
	</g>
</g>
<g>
	<g>
		<path d="M167.04,125.28c-23.019,0-41.68,18.661-41.68,41.68s18.661,41.68,41.68,41.68s41.68-18.661,41.68-41.68    S190.059,125.28,167.04,125.28z M167.04,192.64c-14.183,0-25.68-11.497-25.68-25.68s11.497-25.68,25.68-25.68    s25.68,11.497,25.68,25.68S181.223,192.64,167.04,192.64z" fill="#006DF0"/>
	</g>
</g>
<g>
</g>
<g>
</g>
<g>
</g>
<g>
</g>
<g>
</g>
<g>
</g>
<g>
</g>
<g>
</g>
<g>
</g>
<g>
</g>
<g>
</g>
<g>
</g>
<g>
</g>
<g>
</g>
<g>
</g>
</svg>
