<svg height="512pt" viewBox="-66 0 512 512" width="512pt" xmlns="http://www.w3.org/2000/svg"><path d="m374.851562 114.226562-109.828124-109.832031c-2.816407-2.8125-6.628907-4.394531-10.609376-4.394531h-239.414062c-8.285156 0-15 6.714844-15 15v482c0 8.285156 6.714844 15 15 15h349.246094c8.285156 0 15-6.714844 15-15v-372.167969c0-3.976562-1.578125-7.792969-4.394532-10.605469zm-105.4375-63.011718 58.617188 58.617187h-58.617188zm-239.414062 430.785156v-452h209.414062v94.832031c0 8.285157 6.714844 15 15 15h94.832032v342.167969zm0 0" fill="#FFFFFF"/><path d="m289.246094 382.328125h-199.246094c-8.285156 0-15 6.714844-15 15s6.714844 15 15 15h199.246094c8.285156 0 15-6.714844 15-15s-6.714844-15-15-15zm0 0" fill="#FFFFFF"/><path d="m289.246094 322.328125h-199.246094c-8.285156 0-15 6.714844-15 15 0 8.28125 6.714844 15 15 15h199.246094c8.285156 0 15-6.71875 15-15 0-8.285156-6.714844-15-15-15zm0 0"/><path d="m289.246094 262.328125h-199.246094c-8.285156 0-15 6.714844-15 15 0 8.28125 6.714844 15 15 15h199.246094c8.285156 0 15-6.71875 15-15 0-8.285156-6.714844-15-15-15zm0 0" fill="#FFFFFF"/><path d="m90 232.328125h72.378906c8.285156 0 15-6.71875 15-15 0-8.285156-6.714844-15-15-15h-72.378906c-8.285156 0-15 6.714844-15 15 0 8.28125 6.714844 15 15 15zm0 0" fill="#FFFFFF"/></svg>